<?xml version="1.0" encoding="UTF-8"?>
<svg width="29px" height="32px" viewBox="0 0 29 32" version="1.1" xmlns="http://www.w3.org/2000/svg" xmlns:xlink="http://www.w3.org/1999/xlink">
    <!-- Generator: Sketch 63.1 (92452) - https://sketch.com -->
    <title>Group 3</title>
    <desc>Created with Sketch.</desc>
    <g id="Case-Study" stroke="none" stroke-width="1" fill="none" fill-rule="evenodd">
        <g transform="translate(-428.000000, -2848.000000)" id="Group-29" stroke="#8605F9">
            <g transform="translate(0.000000, 2479.000000)">
                <g id="Group-3" transform="translate(429.000000, 368.000000)">
                    <path d="M31.755679,11.6063066 L11.3055568,11.8312276 C10.6746257,11.8381669 10.0619445,12.0438613 9.5546475,12.4190573 L8.50948568,13.1920572 L9.4827173,13.9021643 C10.0052941,14.2834564 10.63712,14.485619 11.2839736,14.4785046 L31.7040045,14.2539146 C32.0754671,14.249829 32.4112178,14.0972662 32.654445,13.8488652 C32.8980067,13.6001228 33.0480537,13.2562449 33.053581,12.8707072 C33.0482586,12.5182788 32.9013325,12.2009658 32.6676355,11.9723536 C32.4327486,11.7425773 32.1102051,11.6024073 31.755679,11.6063066 Z" id="Rectangle" transform="translate(20.619448, 13.038768) rotate(119.000000) translate(-20.619448, -13.038768) "></path>
                    <circle id="Oval" cx="7" cy="5" r="1"></circle>
                    <path d="M13.833294,1.7280963 L12.7422241,5.90770554 L14.2091745,5.27646351 L18.1030255,13.3440736 L20.3265887,12.3421671 L16.450615,4.31078283 L17.7771645,3.7409944 L13.833294,1.7280963 Z" id="Combined-Shape"></path>
                    <path d="M7,1.5 C6.03397316,1.5 5.159591,1.89514355 4.52659024,2.53341932 C3.89209392,3.17320311 3.5,4.05715256 3.5,5.03333333 C3.5,5.70857829 3.68746654,6.33971533 4.01321423,6.87639727 C4.4012185,7.51564936 4.98499441,8.02108691 5.68077014,8.30722351 L5.68167629,11.5 L8.31832371,11.5 L8.31922986,8.30722351 C9.01500559,8.02108691 9.5987815,7.51564936 9.98678577,6.87639727 C10.3125335,6.33971533 10.5,5.70857829 10.5,5.03333333 C10.5,4.05715256 10.1079061,3.17320311 9.47340976,2.53341932 C8.840409,1.89514355 7.96602684,1.5 7,1.5 Z" id="Combined-Shape"></path>
                    <path d="M13,10 C13.0571663,8.15107724 13.8086724,7.22661586 15.2545182,7.22661586 C17.4232869,7.22661586 19.4883782,7.6796717 20.3519618,7.22661586 C21.2155454,6.77356002 20.9667535,5.86146856 20.9667535,4" id="Path-3" stroke-linecap="round"></path>
                    <rect id="Rectangle" x="20" y="1.5" width="2" height="2" rx="1"></rect>
                    <path d="M24.600147,9.94117647 C25.079255,9.9411659 25.4910465,10.2809767 25.5819804,10.751376 C26.1910198,13.9019221 26.1345479,16.6736802 25.4125649,19.0666504 C24.609512,21.7283217 22.8637547,22.8556187 21.0886871,24.193783 C20.6379131,24.5336066 20.1867083,24.8505364 19.7381163,25.1433626 L19.737681,31 C19.737681,31.5522847 19.2899657,32 18.737681,32 L9.38791318,32 C8.83562843,32 8.38791318,31.5522847 8.38791318,31 L8.38745477,27.5881765 L4.42238976,27.5882353 C3.87010501,27.5882353 3.42238976,27.14052 3.42238976,26.5882353 L3.42145477,21.4171765 L1.13087777,21.4260361 C0.578596253,21.4279265 0.1293511,20.9817464 0.127460633,20.4294649 C0.126830064,20.2452503 0.177096732,20.0644413 0.272715202,19.9069848 L3.42145477,14.7201765 L3.42238976,10.9411765 C3.42238976,10.3888917 3.87010501,9.94117647 4.42238976,9.94117647 L24.600147,9.94117647 Z" id="Line-3" stroke-width="2" fill="#1B1B1B" stroke-linecap="square"></path>
                    <path d="M6,15 C7.08970549,16.3333333 8.08970549,16.3333333 9,15" id="Path-2" stroke-linecap="square"></path>
                </g>
            </g>
        </g>
    </g>
</svg>