<?xml version="1.0" encoding="UTF-8"?>
<svg width="41px" height="44px" viewBox="0 0 41 44" version="1.1" xmlns="http://www.w3.org/2000/svg" xmlns:xlink="http://www.w3.org/1999/xlink">
    <!-- Generator: Sketch 63.1 (92452) - https://sketch.com -->
    <title>Group 3 Copy</title>
    <desc>Created with Sketch.</desc>
    <g id="Case-Study" stroke="none" stroke-width="1" fill="none" fill-rule="evenodd">
        <g transform="translate(-268.000000, -5634.000000)" id="Group-28" stroke="#8605F9">
            <g transform="translate(0.000000, 5272.000000)">
                <g id="Group-3-Copy" transform="translate(270.000000, 361.000000)">
                    <path d="M43.4309491,15.5 L15.4474189,15.5 C14.8016673,15.5 14.1731512,15.708363 13.6552845,16.0941209 L11.7679399,17.5 L13.6552845,18.9058791 C14.1731512,19.291637 14.8016673,19.5 15.4474189,19.5 L43.4309491,19.5 C43.9832339,19.5 44.4832339,19.2761424 44.8451627,18.9142136 C45.2070915,18.5522847 45.4309491,18.0522847 45.4309491,17.5 C45.4309491,16.9477153 45.2070915,16.4477153 44.8451627,16.0857864 C44.4832339,15.7238576 43.9832339,15.5 43.4309491,15.5 Z" id="Rectangle" transform="translate(28.430949, 17.500000) rotate(119.000000) translate(-28.430949, -17.500000) "></path>
                    <circle id="Oval" cx="10.4309491" cy="7" r="1.5"></circle>
                    <path d="M18.2691707,2.18359237 L16.6668424,8.55778247 L18.7997424,7.60460951 L23.9923242,18.777773 L27.2673545,17.2453331 L22.1016297,6.12957111 L24.0620348,5.25390715 L18.2691707,2.18359237 Z" id="Combined-Shape"></path>
                    <path d="M10.4309491,1.5 C9.05023727,1.5 7.80023727,2.05964406 6.89541524,2.96446609 C5.99059321,3.86928813 5.43094914,5.11928813 5.43094914,6.5 C5.43094914,7.45516741 5.69863691,8.34784368 6.16338988,9.10687709 C6.69636924,9.97733768 7.48808749,10.6722248 8.43161378,11.0843902 L8.43101675,15.5 L12.4309915,15.5 L12.431366,11.0839176 C13.3745747,10.6716241 14.1659995,9.97677087 14.6987779,9.10643697 C15.1633649,8.34749864 15.4309491,7.4549828 15.4309491,6.5 C15.4309491,5.11928813 14.8713051,3.86928813 13.966483,2.96446609 C13.061661,2.05964406 11.811661,1.5 10.4309491,1.5 Z" id="Combined-Shape"></path>
                    <path d="M15.9309491,13.8474121 C16.0134687,11.2808431 17.0982669,9.99755859 19.1853437,9.99755859 C22.3159589,9.99755859 25.2969159,10.6264648 26.543498,9.99755859 C27.79008,9.36865234 27.4309491,8.10253906 27.4309491,5.51855469" id="Path-3" stroke-linecap="round"></path>
                    <rect id="Rectangle" x="25.4309491" y="1.5" width="4" height="4" rx="1"></rect>
                    <path d="M35.1281353,13 C35.6013385,13.0000291 36.0097593,13.3317171 36.1068372,13.7948554 C37.0316128,18.2067669 36.9729835,22.0786966 35.9309491,25.4106445 C34.7988691,29.0305176 32.3378392,30.5636415 29.8354902,32.3835449 C29.1995734,32.8460332 28.5630487,33.2773418 27.9302154,33.6758217 L27.9309491,42 C27.9309491,42.5522847 27.4832339,43 26.9309491,43 L12.9309491,43 C12.3786644,43 11.9309491,42.5522847 11.9309491,42 L11.93,37 L5.93094914,37 C5.37866439,37 4.93094914,36.5522847 4.93094914,36 L4.93,28.608 L1.00330227,28.6217116 C0.45102053,28.6235354 0.0018292458,28.177301 5.45456662e-06,27.6250193 C-0.000620765065,27.435387 0.0526856084,27.2494856 0.153706464,27.0890002 L4.93,19.5 L4.93094914,14 C4.93094914,13.4477153 5.37866439,13 5.93094914,13 L35.1281353,13 Z" id="Line-3" stroke-width="3" fill="#363636" stroke-linecap="square"></path>
                    <path d="M8.93094914,18 C10.9001874,20.7211914 12.7073163,20.7211914 14.3523359,18" id="Path-2" stroke-linecap="square"></path>
                </g>
            </g>
        </g>
    </g>
</svg>