<?xml version="1.0" encoding="UTF-8"?>
<svg width="215px" height="216px" viewBox="0 0 215 216" version="1.1" xmlns="http://www.w3.org/2000/svg" xmlns:xlink="http://www.w3.org/1999/xlink">
    <!-- Generator: Sketch 63.1 (92452) - https://sketch.com -->
    <title>fitNEXT</title>
    <desc>Created with Sketch.</desc>
    <defs>
        <linearGradient x1="91.1881824%" y1="8.75096913%" x2="9.11718844%" y2="89.8567746%" id="linearGradient-1">
            <stop stop-color="#8605F9" offset="0%"></stop>
            <stop stop-color="#FA0000" offset="100%"></stop>
        </linearGradient>
        <path d="M7.17911074,44.0266223 L7.17911074,16.7301165 L7.26719799,16.7301165 L26.25,44.0266223 L29.9937081,44.0266223 L29.9937081,12.8557737 L27.0868289,12.8557737 L27.0868289,40.1522795 L26.9987416,40.1522795 L8.0159396,12.8557737 L4.27223154,12.8557737 L4.27223154,44.0266223 L7.17911074,44.0266223 Z M58.3137584,44.0266223 L58.3137584,41.385025 L41.4450503,41.385025 L41.4450503,29.2336772 L56.596057,29.2336772 L56.596057,26.5920799 L41.4450503,26.5920799 L41.4450503,15.497371 L57.6090604,15.497371 L57.6090604,12.8557737 L38.5381711,12.8557737 L38.5381711,44.0266223 L58.3137584,44.0266223 Z M63.9072987,44.0266223 L73.7730705,29.9381032 L83.6388423,44.0266223 L87.2504195,44.0266223 L75.6669463,27.6487188 L86.2374161,12.8557737 L82.7579698,12.8557737 L73.9052013,25.5354409 L64.920302,12.8557737 L61.4848993,12.8557737 L72.1434564,27.6487188 L60.4278523,44.0266223 L63.9072987,44.0266223 Z M101.388423,44.0266223 L101.388423,15.497371 L112.04698,15.497371 L112.04698,12.8557737 L87.8229866,12.8557737 L87.8229866,15.497371 L98.4815436,15.497371 L98.4815436,44.0266223 L101.388423,44.0266223 Z" id="path-2"></path>
        <path d="M17.4412752,75.4742097 L17.4412752,46.9449584 L25.8221477,46.9449584 L25.8221477,39.246589 L17.4412752,39.246589 L17.4412752,32.6803328 C17.4412752,31.67401 17.5041946,30.7180033 17.6300336,29.8123128 C17.7558725,28.9066223 18.0327181,28.1141431 18.4605705,27.4348752 C18.8884228,26.7556073 19.4798658,26.2147088 20.2348993,25.8121797 C20.9899329,25.4096506 21.9966443,25.208386 23.2550336,25.208386 C23.909396,25.208386 24.5385906,25.2587022 25.1426174,25.3593344 C25.7466443,25.4599667 26.3758389,25.5857571 27.0302013,25.7367055 L27.0302013,25.7367055 L27.6342282,18.0383361 C25.8724832,17.6861231 23.9597315,17.5100166 21.8959732,17.5100166 C19.0771812,17.5100166 16.7869128,17.8999667 15.0251678,18.6798669 C13.2634228,19.4597671 11.8917785,20.5793012 10.9102349,22.0384692 C9.92869128,23.4976373 9.26174497,25.2461231 8.90939597,27.2839268 C8.55704698,29.3217304 8.38087248,31.5985358 8.38087248,34.1143428 L8.38087248,34.1143428 L8.38087248,39.246589 L0.906040268,39.246589 L0.906040268,46.9449584 L8.38087248,46.9449584 L8.38087248,75.4742097 L17.4412752,75.4742097 Z M36.3171141,32.3784359 C37.9781879,32.3784359 39.375,31.8626955 40.5075503,30.8312146 C41.6401007,29.7997338 42.2063758,28.5040932 42.2063758,26.9442928 C42.2063758,25.3844925 41.6401007,24.0888519 40.5075503,23.057371 C39.375,22.0258902 37.9781879,21.5101498 36.3171141,21.5101498 C34.6560403,21.5101498 33.284396,22.0510483 32.2021812,23.1328453 C31.1199664,24.2146423 30.5788591,25.4851248 30.5788591,26.9442928 C30.5788591,28.4034609 31.1199664,29.6739434 32.2021812,30.7557404 C33.284396,31.8375374 34.6560403,32.3784359 36.3171141,32.3784359 Z M40.9228188,75.4742097 L40.9228188,39.246589 L31.8624161,39.246589 L31.8624161,75.4742097 L40.9228188,75.4742097 Z M66.442953,76.3799002 C67.5,76.3799002 68.7206376,76.2918469 70.1048658,76.1157404 C71.489094,75.9396339 72.659396,75.6251581 73.6157718,75.1723128 L73.6157718,75.1723128 L73.6157718,67.5494176 C73.0620805,67.9519468 72.307047,68.2412646 71.3506711,68.417371 C70.3942953,68.5934775 69.5134228,68.6815308 68.7080537,68.6815308 C66.6946309,68.6815308 65.3481544,68.1532113 64.6686242,67.0965724 C63.989094,66.0399334 63.6493289,64.6059235 63.6493289,62.7945424 L63.6493289,62.7945424 L63.6493289,46.9449584 L73.6157718,46.9449584 L73.6157718,39.246589 L63.6493289,39.246589 L63.6493289,28.7556739 L54.5889262,28.7556739 L54.5889262,39.246589 L47.114094,39.246589 L47.114094,46.9449584 L54.5889262,46.9449584 L54.5889262,63.5492845 C54.5889262,65.6625624 54.7525168,67.5242596 55.079698,69.134376 C55.4068792,70.7444925 56.010906,72.0904493 56.8917785,73.1722463 C57.772651,74.2540433 58.9807047,75.0591015 60.5159396,75.587421 C62.0511745,76.1157404 64.0268456,76.3799002 66.442953,76.3799002 Z" id="path-3"></path>
    </defs>
    <g id="Case-Study" stroke="none" stroke-width="1" fill="none" fill-rule="evenodd">
        <g id="Artboard-Copy" transform="translate(-196.000000, -74.000000)">
            <g id="fitNEXT" transform="translate(193.791946, 71.700499)">
                <g id="Equiptment/Dumbbell" transform="translate(110.096582, 110.322990) rotate(91.000000) translate(-110.096582, -110.322990) translate(2.189703, 2.143289)">
                    <g id="Group-4" transform="translate(0.092827, 0.242931)">
                        <g id="Workout/Dumbbell" transform="translate(0.537801, 0.340667)">
                            <g id="Group-2" transform="translate(0.000000, -0.000000)">
                                <ellipse id="Oval" fill="url(#linearGradient-1)" cx="107.294288" cy="107.583312" rx="107.122312" ry="107.08096"></ellipse>
                                <line x1="50.9748601" y1="66.0923193" x2="116.248527" y2="66.0923193" id="Line" stroke="#1B1B1B" stroke-width="7" fill="#FFFFFF" fill-rule="nonzero" stroke-linecap="round"></line>
                                <rect id="Rectangle" stroke="#1B1B1B" stroke-width="3" fill="#FFFFFF" fill-rule="nonzero" x="91.7285166" y="45.151621" width="9.87582107" height="41.8813966" rx="1.55333333"></rect>
                                <rect id="Rectangle-Copy" stroke="#1B1B1B" stroke-width="3" fill="#FFFFFF" fill-rule="nonzero" x="65.6190498" y="45.151621" width="9.87582107" height="41.8813966" rx="1.55333333"></rect>
                                <rect id="Rectangle-Copy-2" stroke="#1B1B1B" stroke-width="3" fill="#FFFFFF" fill-rule="nonzero" x="55.175263" y="52.6572477" width="9.87582107" height="26.8701433" rx="1.55333333"></rect>
                                <rect id="Rectangle-Copy-3" stroke="#1B1B1B" stroke-width="3" fill="#FFFFFF" fill-rule="nonzero" x="102.172303" y="52.6572477" width="9.87582107" height="26.8701433" rx="1.55333333"></rect>
                            </g>
                        </g>
                    </g>
                </g>
                <g id="NEXT" transform="translate(49.077181, 116.356073)" fill-rule="nonzero">
                    <g>
                        <use fill="#000000" xlink:href="#path-2"></use>
                        <use fill="#FFFFFF" xlink:href="#path-2"></use>
                    </g>
                </g>
                <g id="fit" transform="translate(49.077181, 38.366057)" fill-rule="nonzero">
                    <g>
                        <use fill="#000000" xlink:href="#path-3"></use>
                        <use fill="#FFFFFF" xlink:href="#path-3"></use>
                    </g>
                </g>
            </g>
        </g>
    </g>
</svg>