<svg xmlns="http://www.w3.org/2000/svg" xmlns:xlink="http://www.w3.org/1999/xlink" width="104" height="104" viewBox="0 0 104 104">
  <defs>
    <filter id="Rectangle_196" x="0" y="0" width="104" height="104" filterUnits="userSpaceOnUse">
      <feOffset dy="3" input="SourceAlpha"/>
      <feGaussianBlur stdDeviation="3" result="blur"/>
      <feFlood flood-opacity="0.161"/>
      <feComposite operator="in" in2="blur"/>
      <feComposite in="SourceGraphic"/>
    </filter>
  </defs>
  <g id="Group_197" data-name="Group 197" transform="translate(-252 -519)">
    <g transform="matrix(1, 0, 0, 1, 252, 519)" filter="url(#Rectangle_196)">
      <rect id="Rectangle_196-2" data-name="Rectangle 196" width="86" height="86" rx="8" transform="translate(9 6)" fill="#fff"/>
    </g>
    <g id="Group_195" data-name="Group 195" transform="translate(264.423 547.252)">
      <g id="Group_192" data-name="Group 192" transform="matrix(0.978, -0.208, 0.208, 0.978, 11.234, 12.357)">
        <ellipse id="Ellipse_2" data-name="Ellipse 2" cx="3.051" cy="4.16" rx="3.051" ry="4.16" transform="translate(20.802 4.491) rotate(30)" fill="#c6bcff"/>
        <ellipse id="Ellipse_3" data-name="Ellipse 3" cx="3.051" cy="4.16" rx="3.051" ry="4.16" transform="matrix(0.985, 0.174, -0.174, 0.985, 14.089, 0)" fill="#c6bcff"/>
        <ellipse id="Ellipse_4" data-name="Ellipse 4" cx="3.051" cy="4.16" rx="3.051" ry="4.16" transform="matrix(-0.985, 0.174, -0.174, -0.985, 12.887, 8.194)" fill="#c6bcff"/>
        <ellipse id="Ellipse_5" data-name="Ellipse 5" cx="3.051" cy="4.16" rx="3.051" ry="4.16" transform="translate(9.445 12.252) rotate(150)" fill="#c6bcff"/>
        <path id="Union_3" data-name="Union 3" d="M9.135,8.094q-.285-.165-.555-.341-.269.176-.555.341C4.842,9.932,1.392,9.917.32,8.059s.64-4.853,3.823-6.691A10.83,10.83,0,0,1,6.612.317,4.848,4.848,0,0,1,8.581,0,4.847,4.847,0,0,1,10.55.317a10.823,10.823,0,0,1,2.468,1.052c3.184,1.838,4.9,4.834,3.823,6.691a3.376,3.376,0,0,1-3.089,1.4A9.529,9.529,0,0,1,9.135,8.094Z" transform="translate(4.648 11.683)" fill="#c6bcff"/>
      </g>
      <g id="Group_191" data-name="Group 191" transform="matrix(0.978, 0.208, -0.208, 0.978, 42.977, 14.591)">
        <ellipse id="Ellipse_2-2" data-name="Ellipse 2" cx="3.051" cy="4.16" rx="3.051" ry="4.16" transform="translate(20.802 4.491) rotate(30)" fill="#c6bcff"/>
        <ellipse id="Ellipse_3-2" data-name="Ellipse 3" cx="3.051" cy="4.16" rx="3.051" ry="4.16" transform="matrix(0.985, 0.174, -0.174, 0.985, 14.089, 0)" fill="#c6bcff"/>
        <ellipse id="Ellipse_4-2" data-name="Ellipse 4" cx="3.051" cy="4.16" rx="3.051" ry="4.16" transform="matrix(-0.985, 0.174, -0.174, -0.985, 12.887, 8.194)" fill="#c6bcff"/>
        <ellipse id="Ellipse_5-2" data-name="Ellipse 5" cx="3.051" cy="4.16" rx="3.051" ry="4.16" transform="translate(9.445 12.252) rotate(150)" fill="#c6bcff"/>
        <path id="Union_3-2" data-name="Union 3" d="M9.135,8.094q-.285-.165-.555-.341-.269.176-.555.341C4.842,9.932,1.392,9.917.32,8.059s.64-4.853,3.823-6.691A10.83,10.83,0,0,1,6.612.317,4.848,4.848,0,0,1,8.581,0,4.847,4.847,0,0,1,10.55.317a10.823,10.823,0,0,1,2.468,1.052c3.184,1.838,4.9,4.834,3.823,6.691a3.376,3.376,0,0,1-3.089,1.4A9.529,9.529,0,0,1,9.135,8.094Z" transform="translate(4.648 11.683)" fill="#c6bcff"/>
      </g>
      <line id="Line_89" data-name="Line 89" y1="12.838" x2="39.797" transform="translate(0 0)" fill="none" stroke="#1b1b1b" stroke-linecap="round" stroke-width="1"/>
      <line id="Line_90" data-name="Line 90" x2="39.797" y2="12.838" transform="translate(39.797 0)" fill="none" stroke="#1b1b1b" stroke-linecap="round" stroke-width="1"/>
      <line id="Line_91" data-name="Line 91" y2="25" transform="translate(10.577 10.748)" fill="none" stroke="#1b1b1b" stroke-linecap="round" stroke-width="1"/>
      <line id="Line_92" data-name="Line 92" y2="25.676" transform="translate(70.608 10.27)" fill="none" stroke="#1b1b1b" stroke-linecap="round" stroke-width="1"/>
    </g>
  </g>
</svg>
