<svg xmlns="http://www.w3.org/2000/svg" width="304" height="215.129" viewBox="0 0 304 215.129">
  <g id="Group_196" data-name="Group 196" transform="translate(-62 -459.871)">
    <g id="Group_194" data-name="Group 194" transform="translate(93.827 460.5)">
      <g id="Group_192" data-name="Group 192" transform="matrix(0.978, -0.208, 0.208, 0.978, 32.767, 36.041)">
        <ellipse id="Ellipse_2" data-name="Ellipse 2" cx="8.898" cy="12.134" rx="8.898" ry="12.134" transform="translate(60.671 13.098) rotate(30)" fill="rgba(198,188,255,0.7)"/>
        <ellipse id="Ellipse_3" data-name="Ellipse 3" cx="8.898" cy="12.134" rx="8.898" ry="12.134" transform="matrix(0.985, 0.174, -0.174, 0.985, 41.093, 0)" fill="rgba(198,188,255,0.7)"/>
        <ellipse id="Ellipse_4" data-name="Ellipse 4" cx="8.898" cy="12.134" rx="8.898" ry="12.134" transform="matrix(-0.985, 0.174, -0.174, -0.985, 37.587, 23.9)" fill="rgba(198,188,255,0.7)"/>
        <ellipse id="Ellipse_5" data-name="Ellipse 5" cx="8.898" cy="12.134" rx="8.898" ry="12.134" transform="translate(27.547 35.734) rotate(150)" fill="rgba(198,188,255,0.7)"/>
        <path id="Union_3" data-name="Union 3" d="M26.644,23.607q-.832-.48-1.618-1-.785.515-1.618,1c-9.286,5.361-19.349,5.316-22.477-.1S2.8,9.352,12.083,3.992a31.588,31.588,0,0,1,7.2-3.068A14.141,14.141,0,0,1,25.027.007a14.136,14.136,0,0,1,5.744.917,31.567,31.567,0,0,1,7.2,3.067c9.286,5.36,14.279,14.1,11.151,19.515-1.574,2.727-4.905,4.092-9.01,4.092A27.794,27.794,0,0,1,26.644,23.607Z" transform="translate(13.557 34.076)" fill="rgba(198,188,255,0.7)"/>
      </g>
      <g id="Group_191" data-name="Group 191" transform="matrix(0.978, 0.208, -0.208, 0.978, 125.35, 42.556)">
        <ellipse id="Ellipse_2-2" data-name="Ellipse 2" cx="8.898" cy="12.134" rx="8.898" ry="12.134" transform="translate(60.671 13.098) rotate(30)" fill="rgba(198,188,255,0.7)"/>
        <ellipse id="Ellipse_3-2" data-name="Ellipse 3" cx="8.898" cy="12.134" rx="8.898" ry="12.134" transform="matrix(0.985, 0.174, -0.174, 0.985, 41.093, 0)" fill="rgba(198,188,255,0.7)"/>
        <ellipse id="Ellipse_4-2" data-name="Ellipse 4" cx="8.898" cy="12.134" rx="8.898" ry="12.134" transform="matrix(-0.985, 0.174, -0.174, -0.985, 37.587, 23.9)" fill="rgba(198,188,255,0.7)"/>
        <ellipse id="Ellipse_5-2" data-name="Ellipse 5" cx="8.898" cy="12.134" rx="8.898" ry="12.134" transform="translate(27.547 35.734) rotate(150)" fill="rgba(198,188,255,0.7)"/>
        <path id="Union_3-2" data-name="Union 3" d="M26.644,23.607q-.832-.48-1.618-1-.785.515-1.618,1c-9.286,5.361-19.349,5.316-22.477-.1S2.8,9.352,12.083,3.992a31.588,31.588,0,0,1,7.2-3.068A14.141,14.141,0,0,1,25.027.007a14.136,14.136,0,0,1,5.744.917,31.567,31.567,0,0,1,7.2,3.067c9.286,5.36,14.279,14.1,11.151,19.515-1.574,2.727-4.905,4.092-9.01,4.092A27.794,27.794,0,0,1,26.644,23.607Z" transform="translate(13.557 34.076)" fill="rgba(198,188,255,0.7)"/>
      </g>
      <line id="Line_89" data-name="Line 89" y1="37.444" x2="116.075" transform="translate(0)" fill="none" stroke="#1b1b1b" stroke-linecap="round" stroke-width="1"/>
      <line id="Line_90" data-name="Line 90" x2="116.075" y2="37.444" transform="translate(116.075)" fill="none" stroke="#1b1b1b" stroke-linecap="round" stroke-width="1"/>
      <line id="Line_91" data-name="Line 91" y2="74.887" transform="translate(29.955 29.955)" fill="none" stroke="#1b1b1b" stroke-linecap="round" stroke-width="1"/>
      <line id="Line_92" data-name="Line 92" y2="74.887" transform="translate(205.94 29.955)" fill="none" stroke="#1b1b1b" stroke-linecap="round" stroke-width="1"/>
    </g>
    <g id="Group_190" data-name="Group 190" transform="translate(62 508.407)">
      <text id="furrever" transform="translate(0 71.593)" fill="#1b1b1b" font-size="72" font-family="AvenirNext-Bold, Avenir Next" font-weight="700"><tspan x="0" y="0">furrever</tspan></text>
      <text id="homes" transform="translate(70 140.593)" fill="#1b1b1b" font-size="72" font-family="AvenirNext-Bold, Avenir Next" font-weight="700"><tspan x="0" y="0">homes</tspan></text>
    </g>
  </g>
</svg>
