<svg xmlns="http://www.w3.org/2000/svg" xmlns:xlink="http://www.w3.org/1999/xlink" width="190" height="190" viewBox="0 0 190 190">
  <defs>
    <filter id="Rectangle_196" x="0" y="0" width="190" height="190" filterUnits="userSpaceOnUse">
      <feOffset dy="3" input="SourceAlpha"/>
      <feGaussianBlur stdDeviation="3" result="blur"/>
      <feFlood flood-opacity="0.161"/>
      <feComposite operator="in" in2="blur"/>
      <feComposite in="SourceGraphic"/>
    </filter>
  </defs>
  <g id="Group_618" data-name="Group 618" transform="translate(-155 -690)">
    <g transform="matrix(1, 0, 0, 1, 155, 690)" filter="url(#Rectangle_196)">
      <rect id="Rectangle_196-2" data-name="Rectangle 196" width="172" height="172" rx="27" transform="translate(9 6)" fill="#fff"/>
    </g>
    <g id="Group_58" data-name="Group 58" transform="translate(65 605)">
      <g id="Group_57" data-name="Group 57" transform="translate(112 120)">
        <g id="Polygon_12" data-name="Polygon 12" transform="translate(66 75) rotate(180)" fill="#fff">
          <path d="M 57.85406875610352 64.00000762939453 L 8.145939826965332 64.00000762939453 C 6.744460105895996 64.00000762939453 5.470049858093262 63.28691482543945 4.736909866333008 62.09248352050781 C 4.003759860992432 60.89805603027344 3.944829940795898 59.43889617919922 4.579269886016846 58.18922424316406 L 29.43333053588867 9.234255790710449 C 30.1292896270752 7.863425254821777 31.46261978149414 7.04502534866333 33 7.04502534866333 C 34.53736877441406 7.04502534866333 35.87070083618164 7.863425254821777 36.5666618347168 9.234255790710449 L 61.42071914672852 58.18922424316406 C 62.05516815185547 59.43889617919922 61.99623870849609 60.89805603027344 61.26308822631836 62.09248352050781 C 60.52994918823242 63.28691482543945 59.25555038452148 64.00000762939453 57.85406875610352 64.00000762939453 Z" stroke="none"/>
          <path d="M 32.9999885559082 8.045024871826172 C 31.84695816040039 8.045024871826172 30.84695816040039 8.658824920654297 30.32498931884766 9.686946868896484 L 5.470939636230469 58.64191436767578 C 4.987998962402344 59.59315490722656 5.031089782714844 60.66016387939453 5.589160919189453 61.56935501098633 C 6.147228240966797 62.47854614257812 7.079139709472656 62.99999618530273 8.145938873291016 62.99999618530273 L 57.85406112670898 62.99999618530273 C 58.92086029052734 62.99999618530273 59.85276794433594 62.47854614257812 60.41083145141602 61.56935501098633 C 60.96889877319336 60.66016387939453 61.01198959350586 59.59315490722656 60.52906036376953 58.64191436767578 L 35.67499923706055 9.686954498291016 C 35.15302276611328 8.658836364746094 34.15302276611328 8.045024871826172 32.9999885559082 8.045024871826172 M 32.99999618530273 6.045028686523438 C 34.76605224609375 6.045028686523438 36.5321159362793 6.957206726074219 37.45832824707031 8.781566619873047 L 62.3123893737793 57.73653411865234 C 64.00108337402344 61.062744140625 61.58438110351562 64.99999237060547 57.85406112670898 64.99999237060547 L 8.145938873291016 64.99999237060547 C 4.415611267089844 64.99999237060547 1.998916625976562 61.062744140625 3.687599182128906 57.73653411865234 L 28.54166030883789 8.781566619873047 C 29.46787643432617 6.957206726074219 31.23393630981445 6.045028686523438 32.99999618530273 6.045028686523438 Z" stroke="none" fill="#545454"/>
        </g>
        <rect id="Rectangle_100" data-name="Rectangle 100" width="32" height="17" transform="translate(17)" fill="#fff"/>
      </g>
      <g id="Ellipse_44" data-name="Ellipse 44" transform="translate(127 123)" fill="#e1e585" stroke="#e1e585" stroke-width="2">
        <circle cx="7" cy="7" r="7" stroke="none"/>
        <circle cx="7" cy="7" r="6" fill="none"/>
      </g>
      <g id="Ellipse_45" data-name="Ellipse 45" transform="translate(149 123)" fill="#e1e585" stroke="#e1e585" stroke-width="2">
        <circle cx="7" cy="7" r="7" stroke="none"/>
        <circle cx="7" cy="7" r="6" fill="none"/>
      </g>
      <path id="Path_22" data-name="Path 22" d="M-558.583-228.131s-1.579,25.734,1.913,31.309,19.388,4.719,22.185.642c4.933-2.257,1.234-24.8,4.126-29.224s9.4-5.04,14.045-.763,2.987,17.866,2.987,17.866" transform="translate(703.28 414.73)" fill="none" stroke="#545454" stroke-width="2"/>
      <path id="Union_13" data-name="Union 13" d="M0,18.664V6.221a6.221,6.221,0,0,1,12.443,0,6.222,6.222,0,0,1,0,12.443Z" transform="translate(176.852 209.76) rotate(-45)" fill="#ff898a"/>
    </g>
    <g id="Group_555" data-name="Group 555" transform="matrix(0.966, 0.259, -0.259, 0.966, 199.498, -28.385)">
      <g id="Group_553" data-name="Group 553" transform="translate(248.964 725.436)">
        <g id="Union_38" data-name="Union 38" transform="translate(34.184 42.395) rotate(180)" fill="none">
          <path d="M20.059,0q-.121,0-.243,0a8.482,8.482,0,0,0-2.877.538A50.278,50.278,0,0,0,11.4,2.21C8.007.422,4.442.238,2.153,2.063c-3.407,2.719-2.693,8.862,1.6,13.722a16.08,16.08,0,0,0,6.317,4.462,5.458,5.458,0,0,0,.574.362c3.852,2.115,9.68-.625,13.015-6.119S26.573,2.828,22.722.713A5.764,5.764,0,0,0,20.782.07,1.58,1.58,0,0,0,20.245,0C20.186,0,20.124,0,20.059,0Z" stroke="none"/>
          <path d="M 19.81594467163086 2 C 19.12600517272949 2 18.38729476928711 2.140899658203125 17.62034606933594 2.418790817260742 L 17.51273536682129 2.457780838012695 L 17.40139579772949 2.48423957824707 C 15.68166542053223 2.892879486083984 13.69847583770752 3.491430282592773 12.09635543823242 4.085350036621094 L 11.25896549224854 4.395780563354492 L 10.46885585784912 3.979469299316406 C 8.978025436401367 3.193941116333008 7.482545852661133 2.778730392456055 6.144084930419922 2.778730392456055 C 5.028776168823242 2.778730392456055 4.105384826660156 3.064050674438477 3.400276184082031 3.626199722290039 C 2.595735549926758 4.268239974975586 2.132575988769531 5.226200103759766 2.023666381835938 6.473470687866211 C 1.923585891723633 7.619540214538574 2.141935348510742 8.932100296020508 2.655096054077148 10.26924991607666 C 3.21197509765625 11.72035026550293 4.108695983886719 13.1699104309082 5.248485565185547 14.4614200592041 C 6.823945999145508 16.24710083007812 8.782405853271484 17.63607025146484 10.76309585571289 18.37245941162109 L 11.01440620422363 18.46588897705078 L 11.2322359085083 18.6222095489502 C 11.3546257019043 18.71005058288574 11.47690582275391 18.78734016418457 11.59564590454102 18.85192108154297 L 11.59914588928223 18.85382080078125 L 11.60263538360596 18.85573959350586 C 12.1675853729248 19.16592025756836 12.82137584686279 19.32320022583008 13.5458459854126 19.32320022583008 C 14.86619567871094 19.32320022583008 16.3895149230957 18.79297065734863 17.835205078125 17.83019065856934 C 19.43052673339844 16.76776123046875 20.85199546813965 15.25384998321533 21.94610595703125 13.45186996459961 C 22.82294654846191 12.00821018218994 23.43726539611816 10.44931983947754 23.72266578674316 8.943719863891602 C 23.9862060546875 7.553400039672852 23.96830558776855 6.230949401855469 23.67088508605957 5.119350433349609 C 23.44149589538574 4.26201057434082 22.92361640930176 3.105819702148438 21.76014518737793 2.467029571533203 C 21.37694549560547 2.256940841674805 20.94948577880859 2.115999221801758 20.48964691162109 2.048120498657227 L 20.27466583251953 2.016389846801758 L 20.23166084289551 2.000055313110352 C 20.20594024658203 2.000263214111328 20.17675018310547 2.001062393188477 20.1446647644043 2.002439498901367 L 20.06662559509277 2.005790710449219 L 19.98855590820312 2.003040313720703 C 19.93117523193359 2.001020431518555 19.87309646606445 2 19.81594467163086 2 M 19.81594467163086 0 C 19.89730644226074 0 19.97817611694336 0.001440048217773438 20.05888557434082 0.00428009033203125 C 20.12410545349121 0.0014801025390625 20.18628692626953 0 20.24486541748047 0 C 20.48698616027832 0 20.66264533996582 0.02433967590332031 20.78169631958008 0.06956100463867188 C 21.46567535400391 0.1705207824707031 22.11819648742676 0.3824710845947266 22.72162628173828 0.7133007049560547 C 26.5732250213623 2.827980041503906 26.99239540100098 8.996140480041504 23.6555061340332 14.49011039733887 C 21.08407020568848 18.7252311706543 17.03229522705078 21.32320404052734 13.54584789276123 21.32320404052734 C 12.50957584381104 21.32320404052734 11.52258777618408 21.09340858459473 10.64008617401123 20.6088809967041 C 10.4395055770874 20.49979019165039 10.24860572814941 20.3780403137207 10.06613540649414 20.24708938598633 C 7.854024887084961 19.42465972900391 5.616506576538086 17.90156936645508 3.748756408691406 15.78460025787354 C -0.5402050018310547 10.92471981048584 -1.254243850708008 4.781789779663086 2.152786254882812 2.062950134277344 C 3.2451171875 1.192083358764648 4.627655029296875 0.7787265777587891 6.144083023071289 0.7787265777587891 C 7.805191040039062 0.7787265777587891 9.626850128173828 1.275161743164062 11.40116596221924 2.210060119628906 C 13.13273620605469 1.568149566650391 15.18467617034912 0.9552898406982422 16.93902587890625 0.5384197235107422 C 17.9124755859375 0.1857109069824219 18.88461685180664 0 19.81594467163086 0 Z" stroke="none" fill="#caebf2"/>
        </g>
        <g id="Ellipse_94" data-name="Ellipse 94" transform="translate(34.55 12.34) rotate(25)" fill="none" stroke="#caebf2" stroke-width="2">
          <ellipse cx="5.105" cy="7.658" rx="5.105" ry="7.658" stroke="none"/>
          <ellipse cx="5.105" cy="7.658" rx="4.105" ry="6.658" fill="none"/>
        </g>
        <g id="Ellipse_97" data-name="Ellipse 97" transform="translate(0 14.102) rotate(-25)" fill="none" stroke="#caebf2" stroke-width="2">
          <ellipse cx="5.105" cy="7.658" rx="5.105" ry="7.658" stroke="none"/>
          <ellipse cx="5.105" cy="7.658" rx="4.105" ry="6.658" fill="none"/>
        </g>
        <g id="Ellipse_95" data-name="Ellipse 95" transform="matrix(0.966, 0.259, -0.259, 0.966, 25.664, 1.276)" fill="none" stroke="#caebf2" stroke-width="2">
          <ellipse cx="5.105" cy="8.296" rx="5.105" ry="8.296" stroke="none"/>
          <ellipse cx="5.105" cy="8.296" rx="4.105" ry="7.296" fill="none"/>
        </g>
        <g id="Ellipse_96" data-name="Ellipse 96" transform="matrix(0.966, -0.259, 0.259, 0.966, 9.884, 2.643)" fill="none" stroke="#caebf2" stroke-width="2">
          <ellipse cx="5.105" cy="8.934" rx="5.105" ry="8.934" stroke="none"/>
          <ellipse cx="5.105" cy="8.934" rx="4.105" ry="7.934" fill="none"/>
        </g>
      </g>
      <g id="Group_554" data-name="Group 554" transform="translate(287.845 743.698)">
        <g id="Union_38-2" data-name="Union 38" transform="translate(34.184 42.395) rotate(180)" fill="none">
          <path d="M20.059,0q-.121,0-.243,0a8.482,8.482,0,0,0-2.877.538A50.278,50.278,0,0,0,11.4,2.21C8.007.422,4.442.238,2.153,2.063c-3.407,2.719-2.693,8.862,1.6,13.722a16.08,16.08,0,0,0,6.317,4.462,5.458,5.458,0,0,0,.574.362c3.852,2.115,9.68-.625,13.015-6.119S26.573,2.828,22.722.713A5.764,5.764,0,0,0,20.782.07,1.58,1.58,0,0,0,20.245,0C20.186,0,20.124,0,20.059,0Z" stroke="none"/>
          <path d="M 19.81594467163086 2 C 19.12600517272949 2 18.38729476928711 2.140899658203125 17.62034606933594 2.418790817260742 L 17.51273536682129 2.457780838012695 L 17.40139579772949 2.48423957824707 C 15.68166542053223 2.892879486083984 13.69847583770752 3.491430282592773 12.09635543823242 4.085350036621094 L 11.25896549224854 4.395780563354492 L 10.46885585784912 3.979469299316406 C 8.978025436401367 3.193941116333008 7.482545852661133 2.778730392456055 6.144084930419922 2.778730392456055 C 5.028776168823242 2.778730392456055 4.105384826660156 3.064050674438477 3.400276184082031 3.626199722290039 C 2.595735549926758 4.268239974975586 2.132575988769531 5.226200103759766 2.023666381835938 6.473470687866211 C 1.923585891723633 7.619540214538574 2.141935348510742 8.932100296020508 2.655096054077148 10.26924991607666 C 3.21197509765625 11.72035026550293 4.108695983886719 13.1699104309082 5.248485565185547 14.4614200592041 C 6.823945999145508 16.24710083007812 8.782405853271484 17.63607025146484 10.76309585571289 18.37245941162109 L 11.01440620422363 18.46588897705078 L 11.2322359085083 18.6222095489502 C 11.3546257019043 18.71005058288574 11.47690582275391 18.78734016418457 11.59564590454102 18.85192108154297 L 11.59914588928223 18.85382080078125 L 11.60263538360596 18.85573959350586 C 12.1675853729248 19.16592025756836 12.82137584686279 19.32320022583008 13.5458459854126 19.32320022583008 C 14.86619567871094 19.32320022583008 16.3895149230957 18.79297065734863 17.835205078125 17.83019065856934 C 19.43052673339844 16.76776123046875 20.85199546813965 15.25384998321533 21.94610595703125 13.45186996459961 C 22.82294654846191 12.00821018218994 23.43726539611816 10.44931983947754 23.72266578674316 8.943719863891602 C 23.9862060546875 7.553400039672852 23.96830558776855 6.230949401855469 23.67088508605957 5.119350433349609 C 23.44149589538574 4.26201057434082 22.92361640930176 3.105819702148438 21.76014518737793 2.467029571533203 C 21.37694549560547 2.256940841674805 20.94948577880859 2.115999221801758 20.48964691162109 2.048120498657227 L 20.27466583251953 2.016389846801758 L 20.23166084289551 2.000055313110352 C 20.20594024658203 2.000263214111328 20.17675018310547 2.001062393188477 20.1446647644043 2.002439498901367 L 20.06662559509277 2.005790710449219 L 19.98855590820312 2.003040313720703 C 19.93117523193359 2.001020431518555 19.87309646606445 2 19.81594467163086 2 M 19.81594467163086 0 C 19.89730644226074 0 19.97817611694336 0.001440048217773438 20.05888557434082 0.00428009033203125 C 20.12410545349121 0.0014801025390625 20.18628692626953 0 20.24486541748047 0 C 20.48698616027832 0 20.66264533996582 0.02433967590332031 20.78169631958008 0.06956100463867188 C 21.46567535400391 0.1705207824707031 22.11819648742676 0.3824710845947266 22.72162628173828 0.7133007049560547 C 26.5732250213623 2.827980041503906 26.99239540100098 8.996140480041504 23.6555061340332 14.49011039733887 C 21.08407020568848 18.7252311706543 17.03229522705078 21.32320404052734 13.54584789276123 21.32320404052734 C 12.50957584381104 21.32320404052734 11.52258777618408 21.09340858459473 10.64008617401123 20.6088809967041 C 10.4395055770874 20.49979019165039 10.24860572814941 20.3780403137207 10.06613540649414 20.24708938598633 C 7.854024887084961 19.42465972900391 5.616506576538086 17.90156936645508 3.748756408691406 15.78460025787354 C -0.5402050018310547 10.92471981048584 -1.254243850708008 4.781789779663086 2.152786254882812 2.062950134277344 C 3.2451171875 1.192083358764648 4.627655029296875 0.7787265777587891 6.144083023071289 0.7787265777587891 C 7.805191040039062 0.7787265777587891 9.626850128173828 1.275161743164062 11.40116596221924 2.210060119628906 C 13.13273620605469 1.568149566650391 15.18467617034912 0.9552898406982422 16.93902587890625 0.5384197235107422 C 17.9124755859375 0.1857109069824219 18.88461685180664 0 19.81594467163086 0 Z" stroke="none" fill="#caebf2"/>
        </g>
        <g id="Ellipse_94-2" data-name="Ellipse 94" transform="translate(34.55 12.34) rotate(25)" fill="none" stroke="#caebf2" stroke-width="2">
          <ellipse cx="5.105" cy="7.658" rx="5.105" ry="7.658" stroke="none"/>
          <ellipse cx="5.105" cy="7.658" rx="4.105" ry="6.658" fill="none"/>
        </g>
        <g id="Ellipse_97-2" data-name="Ellipse 97" transform="translate(0 14.102) rotate(-25)" fill="none" stroke="#caebf2" stroke-width="2">
          <ellipse cx="5.105" cy="7.658" rx="5.105" ry="7.658" stroke="none"/>
          <ellipse cx="5.105" cy="7.658" rx="4.105" ry="6.658" fill="none"/>
        </g>
        <g id="Ellipse_95-2" data-name="Ellipse 95" transform="matrix(0.966, 0.259, -0.259, 0.966, 25.664, 1.276)" fill="none" stroke="#caebf2" stroke-width="2">
          <ellipse cx="5.105" cy="8.296" rx="5.105" ry="8.296" stroke="none"/>
          <ellipse cx="5.105" cy="8.296" rx="4.105" ry="7.296" fill="none"/>
        </g>
        <g id="Ellipse_96-2" data-name="Ellipse 96" transform="matrix(0.966, -0.259, 0.259, 0.966, 9.884, 2.643)" fill="none" stroke="#caebf2" stroke-width="2">
          <ellipse cx="5.105" cy="8.934" rx="5.105" ry="8.934" stroke="none"/>
          <ellipse cx="5.105" cy="8.934" rx="4.105" ry="7.934" fill="none"/>
        </g>
      </g>
    </g>
  </g>
</svg>
