<svg xmlns="http://www.w3.org/2000/svg" width="326" height="159.564" viewBox="0 0 326 159.564">
  <g id="Group_556" data-name="Group 556" transform="translate(-105 -386.436)">
    <g id="Group_288" data-name="Group 288" transform="translate(106 386.436)">
      <rect id="Rectangle_258" data-name="Rectangle 258" width="319.581" height="70.308" transform="matrix(0.996, -0.087, 0.087, 0.996, 0, 44.679)" fill="#caebf2"/>
      <g id="Group_231" data-name="Group 231" transform="translate(12.309)">
        <text id="Vet" transform="translate(1 71.219)" fill="#545454" font-size="74" font-family="Didot"><tspan x="0" y="0">Vet</tspan></text>
        <text id="MD" transform="translate(114.038 106.231)" fill="#545454" font-size="75" font-family="Didot"><tspan x="0" y="0">MD</tspan></text>
        <g id="Group_229" data-name="Group 229" transform="translate(228.655 0)">
          <g id="Union_38" data-name="Union 38" transform="translate(58.027 71.965) rotate(180)" fill="none">
            <path d="M34.05.007Q33.844,0,33.638,0a14.4,14.4,0,0,0-4.884.914,85.347,85.347,0,0,0-9.4,2.838C13.592.716,7.54.4,3.654,3.5-2.129,8.117-.917,18.545,6.364,26.794a27.3,27.3,0,0,0,10.724,7.575,9.264,9.264,0,0,0,.974.614C24.6,38.573,34.493,33.923,40.155,24.6S45.108,4.8,38.57,1.211A9.784,9.784,0,0,0,35.277.118,2.683,2.683,0,0,0,34.366,0C34.266,0,34.161,0,34.05.007Z" stroke="none"/>
            <path d="M 33.63751983642578 2.5 C 32.362060546875 2.5 31.00553894042969 2.757198333740234 29.60560989379883 3.264438629150391 L 29.47109985351562 3.313179016113281 L 29.3318977355957 3.346260070800781 C 26.3793888092041 4.047828674316406 22.97397804260254 5.075649261474609 20.2224292755127 6.095680236816406 L 19.17568778991699 6.483718872070312 L 18.18804931640625 5.963329315185547 C 15.52923774719238 4.562389373779297 12.84639930725098 3.821887969970703 10.42955780029297 3.821887969970703 C 8.328567504882812 3.821887969970703 6.573398590087891 4.371898651123047 5.213706970214844 5.455917358398438 C 3.264667510986328 7.011268615722656 2.685890197753906 9.28080940246582 2.543560028076172 10.91082954406738 C 2.361927032470703 12.99086952209473 2.751949310302734 15.35674858093262 3.671440124511719 17.75268936157227 C 4.654567718505859 20.3144588470459 6.233638763427734 22.86897850036621 8.238178253173828 25.14034843444824 C 11.00835800170898 28.28015899658203 14.46041870117188 30.7255687713623 17.95844841003418 32.02608871459961 L 18.27255821228027 32.14287948608398 L 18.54483795166016 32.3382682800293 C 18.78267860412598 32.50894927978516 19.02194786071777 32.66004943847656 19.2559986114502 32.78733825683594 L 19.26034927368164 32.78970718383789 L 19.26468849182129 32.79208755493164 C 20.35721778869629 33.39192962646484 21.61195945739746 33.69607925415039 22.99402809143066 33.69607925415039 C 25.40990829467773 33.69607925415039 28.17193984985352 32.74271774291992 30.77130889892578 31.01161956787109 C 33.58771896362305 29.13597869873047 36.09365844726562 26.46914863586426 38.01840972900391 23.29911804199219 C 39.56190872192383 20.75782775878906 40.64427947998047 18.00859832763672 41.14848709106445 15.34861946105957 C 41.6207389831543 12.85724830627441 41.58524703979492 10.47477912902832 41.04583740234375 8.458747863769531 C 40.61138916015625 6.834968566894531 39.62042999267578 4.639629364013672 37.36805725097656 3.402999877929688 C 36.62413024902344 2.995140075683594 35.79773712158203 2.722038269042969 34.91182708740234 2.591289520263672 L 34.64308929443359 2.551620483398438 L 34.51769256591797 2.503990173339844 C 34.48401641845703 2.501918792724609 34.43426513671875 2.5 34.36560821533203 2.5 C 34.30395889282227 2.5 34.23387908935547 2.501667022705078 34.15728759765625 2.504959106445312 L 34.05965805053711 2.509159088134766 L 33.96199798583984 2.505718231201172 C 33.85403823852539 2.501930236816406 33.74486923217773 2.5 33.63751983642578 2.5 M 33.63751983642578 0 C 33.77561950683594 0 33.91289901733398 0.00244903564453125 34.04990005493164 0.007266998291015625 C 34.16060638427734 0.00251007080078125 34.26616668701172 0 34.36560821533203 0 C 34.7765998840332 0 35.07479095458984 0.04131698608398438 35.27687072753906 0.1180801391601562 C 36.43792724609375 0.2894477844238281 37.54557037353516 0.6492500305175781 38.56990051269531 1.210826873779297 C 45.10797882080078 4.800479888916016 45.81951904296875 15.27091789245605 40.15515899658203 24.59692001342773 C 35.79014587402344 31.7860279083252 28.91226387023926 36.19607925415039 22.9940299987793 36.19607925415039 C 21.23496055603027 36.19607925415039 19.5595531463623 35.80600357055664 18.06150817871094 34.9835205078125 C 17.72103881835938 34.79833984375 17.3969783782959 34.59165954589844 17.08723831176758 34.36937713623047 C 13.33218955993652 32.97329711914062 9.534008026123047 30.38786888122559 6.363510131835938 26.79431915283203 C -0.9169921875 18.544677734375 -2.129081726074219 8.11707878112793 3.654338836669922 3.501850128173828 C 5.508575439453125 2.0235595703125 7.855422973632812 1.321891784667969 10.42955780029297 1.321891784667969 C 13.24928283691406 1.321891784667969 16.3415470123291 2.164585113525391 19.35343933105469 3.751567840576172 C 22.29278945922852 2.661918640136719 25.77593803405762 1.621608734130859 28.75394821166992 0.9139785766601562 C 30.40637969970703 0.3152389526367188 32.05657958984375 0 33.63751983642578 0 Z" stroke="none" fill="rgba(255,60,62,0.5)"/>
          </g>
          <g id="Ellipse_94" data-name="Ellipse 94" transform="translate(58.649 20.946) rotate(25)" fill="none" stroke="rgba(255,60,62,0.5)" stroke-width="2.5">
            <ellipse cx="8.666" cy="12.999" rx="8.666" ry="12.999" stroke="none"/>
            <ellipse cx="8.666" cy="12.999" rx="7.416" ry="11.749" fill="none"/>
          </g>
          <g id="Ellipse_97" data-name="Ellipse 97" transform="translate(0 23.938) rotate(-25)" fill="none" stroke="rgba(255,60,62,0.5)" stroke-width="2.5">
            <ellipse cx="8.666" cy="12.999" rx="8.666" ry="12.999" stroke="none"/>
            <ellipse cx="8.666" cy="12.999" rx="7.416" ry="11.749" fill="none"/>
          </g>
          <g id="Ellipse_95" data-name="Ellipse 95" transform="matrix(0.966, 0.259, -0.259, 0.966, 43.565, 2.166)" fill="none" stroke="rgba(255,60,62,0.5)" stroke-width="2.5">
            <ellipse cx="8.666" cy="14.082" rx="8.666" ry="14.082" stroke="none"/>
            <ellipse cx="8.666" cy="14.082" rx="7.416" ry="12.832" fill="none"/>
          </g>
          <g id="Ellipse_96" data-name="Ellipse 96" transform="matrix(0.966, -0.259, 0.259, 0.966, 16.778, 4.486)" fill="none" stroke="rgba(255,60,62,0.5)" stroke-width="2.5">
            <ellipse cx="8.666" cy="15.165" rx="8.666" ry="15.165" stroke="none"/>
            <ellipse cx="8.666" cy="15.165" rx="7.416" ry="13.915" fill="none"/>
          </g>
        </g>
      </g>
    </g>
    <text id="The_best_care_anywhere_" data-name="The best care, anywhere!" transform="translate(268 539)" fill="#545454" font-size="30" font-family="ArialMT, Arial" letter-spacing="-0.02em"><tspan x="-162.355" y="0">The best care, anywhere!</tspan></text>
  </g>
</svg>
